<svg xmlns="http://www.w3.org/2000/svg" width="576.03" height="576.03"><path fill-rule="evenodd" d="M.016 576.014h575.986V.028H.016z"/><g fill="none" stroke-linecap="round" stroke-linejoin="round" stroke-miterlimit="10"><g stroke="#fff"><g stroke-width="10.8"><path stroke-width="1.4399640000000002" d="M86.414 489.616h403.19M489.601 489.616V86.426M489.601 86.429H86.411M86.414 86.429v403.19M86.414 489.616v-4.031M123.085 489.616v-7.967M159.756 489.616v-4.031M196.328 489.616v-4.031M233.008 489.616v-4.031M269.673 489.616v-4.031M306.339 489.616v-7.967M343.018 489.616v-4.031M379.684 489.616v-4.031M416.256 489.616v-4.031M452.935 489.616v-4.031M489.601 489.616v-7.967M86.414 90.455v-4.031M123.085 94.389V86.42M159.756 90.455v-4.031M196.328 90.455v-4.031M233.008 90.455v-4.031M269.673 90.455v-4.031M306.339 94.389V86.42M343.018 90.455v-4.031M379.684 90.455v-4.031M416.256 90.455v-4.031M452.935 90.455v-4.031M489.601 94.389V86.42M116.653 499.216l-5.28 7.392M111.373 506.608h7.968M116.653 499.216v11.136M123.085 509.296l-.576.48M122.509 509.776l.576.576M123.085 510.352l.48-.576M123.565 509.776l-.48-.48M133.743 499.216h-5.375M128.365 499.216l-.48 4.8M127.885 504.016l.48-.576M128.365 503.44l1.631-.576M129.997 502.864h1.536M131.533 502.864l1.632.576M133.165 503.44l1.055 1.056M134.223 504.496l.576 1.632M134.797 506.128v1.056M134.797 507.184l-.576 1.536M134.223 508.72l-1.055 1.055M133.165 509.776l-1.633.576M131.533 510.352h-1.536M129.997 510.352l-1.632-.576M128.365 509.776l-.48-.48M127.885 509.296l-.576-1.056M307.979 499.216l-5.376 7.392M302.606 506.608h7.968M307.979 499.216v11.136M478.948 499.216h5.856M484.801 499.216l-3.168 4.224M481.641 503.44h1.632M483.268 503.44l1.056.576M484.321 504.016l.48.48M484.801 504.496l.576 1.632M485.375 506.128v1.056M485.375 507.184l-.576 1.536M484.801 508.72l-1.056 1.055M483.748 509.776l-1.632.576M482.121 510.352h-1.536M480.575 510.352l-1.632-.576M478.948 509.776l-.48-.48M478.468 509.296l-.576-1.056M489.601 509.296l-.576.48M489.028 509.776l.576.576M489.601 510.352l.576-.576M490.174 509.776l-.576-.48M500.254 499.216h-5.376M494.881 499.216l-.48 4.8M494.401 504.016l.48-.576M494.881 503.44l1.632-.576M496.52 502.864h1.633M498.148 502.864l1.536.576M499.68 503.44l1.057 1.056M500.734 504.496l.576 1.632M501.32 506.128v1.056M501.32 507.184l-.575 1.536M500.734 508.72l-1.056 1.055M499.68 509.776l-1.535.576M498.148 510.352h-1.632M496.52 510.352l-1.631-.576M494.881 509.776l-.48-.48M494.401 509.296l-.576-1.056M86.414 489.616h7.967M86.414 469.457h4.031M86.414 449.297h4.031M86.414 429.14h4.031M86.414 408.98h4.031M86.414 388.821h7.967M86.414 368.662h4.031M86.414 348.502h4.031M86.414 328.343h4.031M86.414 308.183h4.031M86.414 288.024h7.967M86.414 267.864h4.031M86.414 247.705h4.031M86.414 227.545h4.031M86.414 207.386h4.031M86.414 187.226h7.967M86.414 167.067h4.031M86.414 146.907h4.031M86.414 126.748h4.031M86.414 106.588h4.031M86.414 86.429h7.967M481.641 489.616h7.968M485.575 469.457h4.031M485.575 449.297h4.031M485.575 429.14h4.031M485.575 408.98h4.031M481.641 388.821h7.968M485.575 368.662h4.031M485.575 348.502h4.031M485.575 328.343h4.031M485.575 308.183h4.031M481.641 288.024h7.968M485.575 267.864h4.031M485.575 247.705h4.031M485.575 227.545h4.031M485.575 207.386h4.031M481.641 187.226h7.968M485.575 167.067h4.031M485.575 146.907h4.031M485.575 126.748h4.031M485.575 106.588h4.031M481.641 86.429h7.968M65.774 486.256v-.48M65.774 485.776l.576-1.055M66.35 484.72l.48-.576M66.83 484.144l1.152-.48M67.982 483.664h2.112M70.094 483.664l1.056.48M71.15 484.144l.48.576M71.63 484.72l.576 1.056M72.206 485.776v1.056M72.206 486.832l-.576 1.056M71.63 487.888l-1.055 1.632M70.574 489.52l-5.28 5.28M65.294 494.8h7.392M66.35 382.861h5.856M72.206 382.861l-3.167 4.224M69.038 387.088h1.536M70.574 387.088l1.056.576M71.63 387.661l.576.48M72.206 388.141l.48 1.632M72.686 389.781v1.056M72.686 390.835l-.48 1.536M72.206 392.368l-1.056 1.056M71.15 393.421l-1.632.576M69.518 394.008h-1.536M67.982 394.008l-1.631-.576M66.35 393.421l-.576-.48M65.774 392.941l-.48-1.056M70.574 282.064l-5.28 7.392M65.294 289.464h7.968M70.574 282.064V293.2M71.63 181.267h-5.28M66.35 181.267l-.576 4.8M65.774 186.066l.576-.576M66.35 185.493l1.632-.576M67.982 184.92h1.536M69.518 184.92l1.633.576M71.15 185.493l1.056 1.056M72.206 186.546l.48 1.632M72.686 188.186v1.056M72.686 189.24l-.48 1.536M72.206 190.773l-1.056 1.056M71.15 191.826l-1.632.576M69.518 192.413h-1.536M67.982 192.413l-1.631-.576M66.35 191.826l-.576-.48M65.774 191.346l-.48-1.056M72.206 82.016l-.576-1.056M71.63 80.949l-1.536-.48M70.094 80.47H69.04M69.038 80.47l-1.632.479M67.406 80.949l-1.055 1.632M66.35 82.589l-.576 2.688M65.774 85.269v2.592M65.774 87.869l.576 2.112M66.35 89.975l1.056 1.056M67.406 91.029l1.633.576M69.038 91.615h.48M69.518 91.615l1.633-.576M71.15 91.029l1.056-1.056M72.206 89.975l.48-1.535M72.686 88.442v-.576M72.686 87.869l-.48-1.536M72.206 86.336 71.15 85.28M71.15 85.269l-1.632-.576M69.518 84.696h-.48M69.038 84.696l-1.632.576M67.406 85.269l-1.055 1.056M66.35 86.336l-.576 1.536"/></g><g stroke-width="14.4"><path stroke-width="1.919952" d="M250.767 523.215v13.92M258.727 527.823l-1.248.672M257.487 528.495l-1.344 1.344M256.14 529.84l-.672 2.015M255.46 531.855v1.248M255.46 533.103l.672 2.016M256.14 535.119l1.344 1.344M257.487 536.463l1.248.672M258.727 537.135h2.016M260.74 537.135l1.344-.672M262.087 536.463l1.344-1.344M263.433 535.119l.672-2.016M264.1 533.103v-1.248M264.1 531.855l-.672-2.016M263.433 529.84l-1.344-1.345M262.087 528.495l-1.344-.672M260.74 527.823h-2.016M276.006 527.823v10.656M276.006 538.479l-.672 2.016M275.34 540.495l-.576.672M274.766 541.167l-1.344.576M273.42 541.743h-2.016M271.407 541.743l-1.344-.576M276.006 529.84l-1.248-1.345M274.766 528.495l-1.344-.672M273.42 527.823h-2.016M271.407 527.823l-1.344.672M270.06 528.495l-1.344 1.344M268.713 529.84l-.672 2.015M268.047 531.855v1.248M268.047 533.103l.672 2.016M268.713 535.119l1.344 1.344M270.06 536.463l1.344.672M271.407 537.135h2.015M273.42 537.135l1.344-.672M274.766 536.463l1.248-1.344M294.633 523.215v13.92M290.02 523.215h9.311M301.926 531.855h7.968M309.899 531.855v-1.344M309.899 530.511l-.576-1.344M309.326 529.167l-.672-.672M308.646 528.495l-1.344-.672M307.299 527.823h-2.016M305.286 527.823l-1.344.672M303.94 528.495l-1.345 1.344M302.606 529.84l-.672 2.015M301.926 531.855v1.248M301.926 533.103l.672 2.016M302.606 535.119l1.344 1.344M303.94 536.463l1.343.672M305.286 537.135h2.016M307.299 537.135l1.344-.672M308.646 536.463l1.248-1.344M318.539 523.215h-1.248M317.285 523.215l-1.344.673M315.939 523.887l-.672 1.92M315.272 525.807v11.328M313.259 527.823h4.704M326.605 523.215h-1.344M325.259 523.215l-1.344.673M323.912 523.887l-.672 1.92M323.245 525.807v11.328M321.219 527.823h4.704M5.488 329.97h14.016M10.192 322.01l.672 1.344M10.864 323.343l1.248 1.248M12.112 324.596l2.016.672M14.128 325.263h1.343M15.472 325.263l2.016-.672M17.488 324.596l1.343-1.248M18.832 323.343l.672-1.344M19.504 322.01v-2.016M19.504 319.983l-.673-1.344M18.832 318.65l-1.344-1.344M17.488 317.303l-2.017-.672M15.472 316.623h-1.344M14.128 316.623l-2.016.672M12.112 317.303l-1.248 1.344M10.864 318.65l-.672 1.344M10.192 319.983V322M10.192 304.73h10.56M20.751 304.73l2.017.672M22.767 305.397l.672.672M23.44 306.063l.671 1.248M24.111 307.317v2.016M24.111 309.33l-.671 1.344M12.112 304.73l-1.248 1.344M10.864 306.063l-.672 1.248M10.192 307.317v2.016M10.192 309.33l.672 1.344M10.864 310.677l1.248 1.344M12.112 312.023l2.016.672M14.128 312.69h1.343M15.472 312.69l2.016-.672M17.488 312.023l1.343-1.344M18.832 310.677l.672-1.344M19.504 309.33v-2.016M19.504 307.317l-.673-1.248M18.832 306.063l-1.344-1.344M5.488 288.784h14.016M19.504 288.784v-7.968M2.8 266.811l21.311 12M5.488 262.864h14.016M19.504 262.864v-7.967M17.008 248.185l.48 1.536M17.488 249.718l.96 1.44M18.448 251.158l1.536 1.056M19.984 252.211l1.44.48M21.423 252.691h1.536M22.96 252.691l1.44-.48M24.4 252.211l1.535-1.056M25.935 251.158l.96-1.44M26.895 249.718l.576-1.536M27.471 248.185v-1.44M27.471 246.745l-.576-1.536M26.895 245.212l-.96-1.44M25.935 243.772l-1.536-1.056M24.4 242.705l-1.44-.48M22.96 242.225h-1.536M21.423 242.225l-1.44.48M19.984 242.705l-1.536 1.056M18.448 243.772l-.96 1.44M17.488 245.212l-.48 1.536M17.008 246.745v1.44M21.423 247.705l.48.48M21.903 248.185h.577M22.48 248.185l.479-.48M22.96 247.705v-.48M22.96 247.225l-.48-.48M22.48 246.745h-.577M21.903 246.745l-.48.48M21.423 247.225v.48M21.903 247.705h.577M22.48 247.705v-.48M22.48 247.225h-.577M21.903 247.225v.48"/></g><g stroke-width="10.8"><path stroke-width="1.4399640000000002" d="M434.79 46.87v4.992M434.79 48.31l1.055-1.056M435.842 47.257l.768-.384M436.616 46.87h1.056M437.67 46.87l.671.384M438.336 47.257l.384 1.056M438.722 48.31v3.552M438.722 48.31l1.056-1.056M439.776 47.257l.672-.384M440.456 46.87h1.056M441.509 46.87l.768.384M442.282 47.257l.288 1.056M442.562 48.31v3.552M446.882 46.87l-.768.384M446.122 47.257l-.672.672M445.442 47.937l-.384 1.056M445.056 48.99v.768M445.056 49.75l.384 1.056M445.442 50.816l.672.672M446.122 51.483l.768.384M446.882 51.87h1.056M447.935 51.87l.672-.384M448.615 51.483l.672-.672M449.282 50.816l.384-1.056M449.669 49.75v-.768M449.669 48.99l-.384-1.056M449.282 47.937l-.672-.672M448.615 47.257l-.672-.384M447.935 46.87h-1.056M456.095 44.377v7.487M456.095 47.937l-.768-.672M455.335 47.257l-.672-.384M454.655 46.87H453.6M453.602 46.87l-.768.384M452.842 47.257l-.672.672M452.162 47.937l-.384 1.056M451.775 48.99v.768M451.775 49.75l.384 1.056M452.162 50.816l.672.672M452.842 51.483l.768.384M453.602 51.87h1.056M454.655 51.87l.672-.384M455.335 51.483l.768-.672M458.495 48.99h4.32M462.815 48.99v-.672M462.815 48.31l-.384-.672M462.442 47.643l-.384-.384M462.055 47.257l-.672-.384M461.375 46.87h-1.056M460.322 46.87l-.672.384M459.655 47.257l-.768.672M458.882 47.937l-.384 1.056M458.495 48.99v.768M458.495 49.75l.384 1.056M458.882 50.816l.768.672M459.655 51.483l.672.384M460.322 51.87h1.056M461.375 51.87l.672-.384M462.055 51.483l.768-.672M465.322 44.377v7.487M473.761 46.203v-.384M473.761 45.817l.384-.672M474.148 45.15l.384-.384M474.535 44.763l.672-.384M475.201 44.377h1.44M476.641 44.377l.672.384M477.321 44.763l.384.384M477.695 45.15l.384.672M478.081 45.817v.768M478.081 46.59l-.384.672M477.695 47.257l-.768 1.056M476.935 48.31l-3.456 3.552M473.481 51.87h4.896M482.695 44.377l-1.152.384M481.535 44.763l-.672 1.056M480.868 45.817l-.384 1.824M480.481 47.643V48.7M480.481 48.697l.384 1.727M480.868 50.43l.672 1.056M481.535 51.483l1.152.384M482.695 51.87h.672M483.361 51.87l1.056-.384M484.415 51.483l.672-1.056M485.095 50.43l.384-1.728M485.481 48.697V47.64M485.481 47.643l-.384-1.824M485.095 45.817l-.672-1.056M484.415 44.763l-1.056-.384M483.361 44.377h-.672M492.574 44.377l-3.552 7.487M487.588 44.377h4.992M75.566 46.87v4.992M75.566 47.937l-.672-.672M74.894 47.257l-.672-.384M74.222 46.87h-1.056M73.166 46.87l-.768.384M72.398 47.257l-.672.672M71.726 47.937l-.384 1.056M71.342 48.99v.768M71.342 49.75l.385 1.056M71.726 50.816l.672.672M72.398 51.483l.768.384M73.166 51.87h1.056M74.222 51.87l.672-.384M74.894 51.483l.673-.672M82.382 46.87v5.664M82.382 52.536l-.384 1.056M81.998 53.59l-.384.384M81.614 53.976l-.672.384M80.942 54.363h-1.056M79.886 54.363l-.768-.384M82.382 47.937l-.768-.672M81.614 47.257l-.672-.384M80.942 46.87h-1.056M79.886 46.87l-.768.384M79.118 47.257l-.672.672M78.446 47.937l-.384 1.056M78.062 48.99v.768M78.062 49.75l.384 1.056M78.446 50.816l.672.672M79.118 51.483l.768.384M79.886 51.87h1.056M80.942 51.87l.672-.384M81.614 51.483l.768-.672M84.782 48.99h4.32M89.102 48.99v-.672M89.102 48.31l-.385-.672M88.718 47.643l-.384-.384M88.334 47.257l-.672-.384M87.662 46.87h-1.056M86.606 46.87l-.768.384M85.838 47.257l-.672.672M85.166 47.937l-.385 1.056M84.782 48.99v.768M84.782 49.75l.384 1.056M85.166 50.816l.672.672M85.838 51.483l.768.384M86.606 51.87h1.056M87.662 51.87l.672-.384M88.334 51.483l.768-.672M101.485 46.87l-.383 1.056M101.101 47.937l-.672.768M100.43 48.697l-1.056.288M99.374 48.99h-.384M98.99 48.99l-1.057-.288M97.934 48.697l-.672-.768M97.262 47.937l-.384-1.056M96.878 46.87v-.288M96.878 46.59l.383-1.056M97.262 45.537l.672-.768M97.934 44.763l1.056-.384M98.99 44.377h.383M99.374 44.377l1.055.384M100.43 44.763l.672.768M101.101 45.537l.384 1.344M101.485 46.87v1.824M101.485 48.697l-.383 1.727M101.101 50.43l-.672 1.056M100.43 51.483l-1.056.384M99.374 51.87h-.769M98.606 51.87l-1.056-.384M97.55 51.483l-.289-.672M104.653 51.19l-.384.288M104.27 51.483l.384.384M104.653 51.87l.384-.384M105.037 51.483l-.383-.288M109.645 44.377l-1.055.384M108.59 44.763l-.769 1.056M107.821 45.817l-.288 1.824M107.533 47.643V48.7M107.533 48.697l.288 1.727M107.821 50.43l.768 1.056M108.59 51.483l1.055.384M109.645 51.87h.672M110.317 51.87l1.056-.384M111.373 51.483l.768-1.056M112.141 50.43l.288-1.728M112.43 48.697V47.64M112.43 47.643l-.289-1.824M112.141 45.817l-.768-1.056M111.373 44.763l-1.056-.384M110.317 44.377h-.672M119.245 45.537l-.384-.768M118.861 44.763l-1.056-.384M117.805 44.377h-.768M117.037 44.377l-1.056.384M115.981 44.763l-.672 1.056M115.31 45.817l-.385 1.824M114.925 47.643v1.728M114.925 49.376l.384 1.44M115.31 50.816l.671.672M115.981 51.483l1.056.384M117.037 51.87h.384M117.421 51.87l1.056-.384M118.477 51.483l.768-.672M119.245 50.816l.288-1.056M119.533 49.75v-.384M119.533 49.376l-.288-1.055M119.245 48.31l-.768-.672M118.477 47.643l-1.056-.384M117.421 47.257h-.384M117.037 47.257l-1.056.384M115.981 47.643l-.672.672M115.31 48.31l-.385 1.056M125.197 44.377l-3.552 4.992M121.645 49.376h5.376M125.197 44.377v7.487M129.805 45.817l.768-.288M130.573 45.537l1.055-1.152M131.629 44.377v7.487M136.237 46.203v-.384M136.237 45.817l.288-.672M136.53 45.15l.384-.384M136.903 44.763l.768-.384M137.677 44.377h1.344M139.023 44.377l.768.384M139.783 44.763l.288.384M140.076 45.15l.384.672M140.463 45.817v.768M140.463 46.59l-.384.672M140.076 47.257l-.671 1.056M139.41 48.31l-3.552 3.552M135.85 51.87h4.992M147.57 46.87l-.384 1.056M147.183 47.937l-.672.768M146.503 48.697l-1.056.288M145.45 48.99h-.384M145.063 48.99l-1.056-.288M144.01 48.697l-.672-.768M143.343 47.937l-.384-1.056M142.956 46.87v-.288M142.956 46.59l.384-1.056M143.343 45.537l.672-.768M144.01 44.763l1.056-.384M145.063 44.377h.384M145.45 44.377l1.056.384M146.503 44.763l.672.768M147.183 45.537l.384 1.344M147.57 46.87v1.824M147.57 48.697l-.384 1.727M147.183 50.43l-.672 1.056M146.503 51.483l-1.056.384M145.45 51.87h-.768M144.69 51.87l-1.056-.384M143.623 51.483l-.288-.672M150.063 48.99h4.224M154.29 48.99v-.672M154.29 48.31l-.385-.672M153.903 47.643l-.288-.384M153.61 47.257l-.768-.384M152.85 46.87h-1.056M151.783 46.87l-.672.384M151.116 47.257l-.768.672M150.343 47.937l-.288 1.056M150.063 48.99v.768M150.063 49.75l.288 1.056M150.343 50.816l.768.672M151.116 51.483l.672.384M151.783 51.87h1.056M152.85 51.87l.767-.384M153.61 51.483l.671-.672M159.943 44.377l-3.552 4.992M156.396 49.376h5.376M159.943 44.377v7.487M168.782 46.87l2.208 4.992M173.102 46.87l-2.112 4.992M170.982 51.87l-.768 1.44M170.222 53.31l-.672.672M169.542 53.976l-.768.384M168.782 54.363h-.288M175.209 46.87v4.992M175.209 48.99l.384-1.056M175.596 47.937l.672-.672M176.262 47.257l.672-.384M176.942 46.87h1.056M183.369 47.937l-.384-.672M182.982 47.257l-1.056-.384M181.929 46.87h-1.056M180.875 46.87l-1.055.384M179.822 47.257l-.384.672M179.436 47.937l.384.768M179.822 48.697l.672.288M180.489 48.99l1.824.384M182.315 49.376l.672.384M182.982 49.75l.384.672M183.369 50.43v.384M183.369 50.816l-.384.672M182.982 51.483l-1.056.384M181.929 51.87h-1.056M180.875 51.87l-1.055-.384M179.822 51.483l-.384-.672M277.926 53.696v12.096M285.993 53.696v12.096M277.926 59.456h8.064M290.606 53.696v12.096M290.606 53.696h5.184M295.78 53.696l1.727.576M297.513 54.27l.576.576M298.086 54.843l.576 1.152M298.66 55.99v1.152M298.66 57.15l-.577 1.152M298.086 58.296l-.576.576M297.513 58.87l-1.728.576M295.78 59.456h-5.185M294.633 59.456l4.032 6.336"/></g></g><g stroke="teal" stroke-width="28.8"><path stroke-width="3.839904" d="M446.402 292.53v-.096M446.402 292.437v.096M446.402 292.53v.096M446.402 292.624h-.096M446.309 292.624v.096M446.309 292.73v.096M446.309 292.824l-.096.096M446.216 292.917v.096M446.216 293.01v.096M446.216 293.104l-.096.096M446.122 293.21v.192M446.122 293.397l-.096.096M446.016 293.49l-.096.288M445.922 293.784v.192M445.922 293.97l-.192.288M445.736 294.264l-.096.384M445.642 294.65l-.096.384M445.536 295.024l-.192.48M445.349 295.504l-.192.576M445.162 296.09l-.288.672M444.869 296.757l-.288.672M444.576 297.424l-.288.96M444.296 298.384l-.384 1.056M443.909 299.45l-.384 1.152M443.522 300.597l-.48 1.344M443.042 301.944l-.48 1.44M442.562 303.383l-.672 1.728M441.896 305.103l-.576 1.824M441.322 306.93l-.768 2.016M440.549 308.943l-.672 2.016M439.882 310.97l-.768 1.728M439.109 312.69l-.576 1.92M438.536 314.61l-.864 1.728M437.67 316.343l-.577 1.536M437.096 317.876l-.672 1.632M436.416 319.503l-.768 1.44M435.656 320.943l-.48 1.248M435.176 322.196l-.578.864M434.602 323.063l-.576.96M434.016 324.023l-.672.768M433.35 324.783l-.577.48M432.776 325.263l-.48.192M432.296 325.463l-.576-.096M431.723 325.37l-.576-.48M431.136 324.89l-.576-.96M430.563 323.93l-.482-1.344M430.083 322.583l-.48-1.728M429.603 320.85l-.576-2.784M429.03 318.063l-.673-3.936M428.363 314.13l-.674-4.128M427.683 310.01l-.767-4.032M426.923 305.97l-.962-3.84M425.963 302.13l-1.056-3.552M424.896 298.584l-2.593-3.648M422.31 294.93l-3.264-2.496M419.043 292.437l-3.839-1.824M415.203 290.61l-4.128-1.343M411.083 289.264l-4.128-1.056M406.95 288.21l-3.841-.767M403.11 287.45l-1.919-.48M401.19 286.97l-1.921-.287M399.27 286.677l-2.112-.382M397.163 286.29l-2.688-.287M394.47 286.01l-1.536-.193M392.937 285.81l-1.536-.191M391.404 285.624l-1.823-.19M389.577 285.424l-2.112-.096M387.457 285.33l-1.248-.191M386.217 285.144l-1.248-.096M384.964 285.05l-1.536-.097M383.43 284.944h-1.728M381.697 284.944l-2.112-.096M379.59 284.85h-2.4M377.19 284.85h-2.785M374.404 284.85l-3.264.097M371.137 284.944l-3.456.193M367.684 285.144l-3.744.192M363.938 285.33l-3.552.289M360.391 285.624l-3.648.288M356.738 285.904l-3.744.288M353.005 286.197l-3.647.384M349.351 286.584l-3.457.288M345.898 286.864l-3.552.288M342.338 287.157l-3.84.288M338.498 287.45l-3.744.097M334.765 287.544h-3.456M331.298 287.544l-3.36-.096M327.938 287.45l-3.647-.287M324.299 287.157l-3.84-.384M320.459 286.77l-3.552-.671M316.899 286.104l-3.36-.672M313.539 285.424l-3.936-1.056M309.606 284.37l-4.224-1.151M305.379 283.224l-3.84-1.344M301.54 281.877l-3.745-1.248M297.806 280.624l-3.648-1.44M294.153 279.184l-3.648-1.44M290.5 277.744l-4.32-1.824M286.18 275.93l-4.704-1.92M281.486 274.01l-4.224-1.727M277.26 272.278l-3.936-1.728M273.327 270.544l-3.84-1.632M269.487 268.918l-3.744-1.632M265.74 267.291l-3.648-1.632M262.087 265.651l-3.744-1.536M258.34 264.118l-3.648-1.44M254.7 262.678l-3.648-1.44M251.047 261.238l-4.32-1.536M246.727 259.705l-4.608-1.632M242.127 258.065l-4.128-1.44M237.994 256.625l-3.84-1.344M234.154 255.291l-3.648-1.152M230.5 254.131l-3.647-1.152M226.861 252.985l-4.128-1.152M222.728 251.825l-4.416-1.152M218.315 250.678l-4.032-.96M214.288 249.718l-3.648-.864M210.635 248.852l-3.648-.864M206.981 247.985l-4.031-.864M202.955 247.132l-4.32-.768M198.635 246.358l-3.84-.672M194.795 245.692l-3.648-.576M191.142 245.105l-3.936-.576M187.209 244.532l-4.128-.48M183.089 244.052l-3.744-.48M179.342 243.572l-3.648-.384M175.689 243.185l-3.84-.288M171.849 242.905l-3.936-.288M167.916 242.612l-3.648-.192M164.263 242.425l-3.744-.096M160.53 242.332h-3.84M156.69 242.332l-3.36.096M153.33 242.425l-3.456.288M149.863 242.705l-3.456.576M146.41 243.292l-3.072 1.056M143.343 244.345l-2.304 1.728M141.036 246.065l-1.631 2.4M139.41 248.465l-.864 2.784M138.543 251.251l-.576 2.688M137.97 253.945l-1.344 1.632M136.623 255.571l-2.976.192M133.65 255.771l-4.032-.384M129.611 255.385l-2.208.48M127.403 255.865l-.576 1.248M126.827 257.105l.097 1.056M126.923 258.171l.48.672"/></g><g stroke="#c03" stroke-width="28.8"><path stroke-width="3.839904" d="m126.157 252.598-2.496 1.248M123.66 253.851l-1.247 1.248M122.413 255.091l-1.248 2.496M121.165 257.585v2.496M121.165 260.091l1.248 2.496M122.413 262.585l1.248 1.247M123.66 263.824l2.497 1.248M126.157 265.078h2.4M128.557 265.078l2.496-1.248M131.053 263.824l1.248-1.247M132.3 262.585l1.249-2.496M133.543 260.091v-2.496M133.543 257.585l-1.248-2.496M132.3 255.091l-1.247-1.248M131.053 253.851l-2.497-1.248M128.557 252.598h-2.4"/></g></g></svg>