<?xml version="1.0" encoding="UTF-8"?>
<svg id="Layer_1" xmlns="http://www.w3.org/2000/svg" viewBox="0 0 479.97 119.57">
  <defs>
    <style>
      .cls-1 {
        fill: #231f20;
      }
    </style>
  </defs>
  <path class="cls-1" d="M68.44,81.95L102.61,7.84l26.51,99.66h-17.63v-.95l1.7-1.7c.23-.23.42-.54.58-.95.16-.41.24-.84.24-1.29,0-.23-.05-.57-.14-1.02-.09-.45-.23-.97-.41-1.56l-14.71-56.68-30.98,67.32L35.42,44.05l-13.49,55.93c-.14.5-.24.95-.3,1.36-.07.41-.1.79-.1,1.15,0,.5.07.95.2,1.36.14.41.34.75.61,1.02l1.56,1.7v.95H6.4L33.32,7.84l35.12,74.1Z"/>
  <path class="cls-1" d="M187.63,24.18c-5.74,0-10.51.52-14.31,1.56-3.8,1.04-7.01,2.64-9.63,4.81-4.16,3.53-7.3,7.72-9.42,12.58-2.12,4.86-3.19,10.25-3.19,16.17,0,6.28,1.04,11.81,3.12,16.58,2.08,4.77,5.2,8.78,9.36,12.03,2.94,2.31,6.2,3.95,9.8,4.92,3.59.97,8.53,1.46,14.81,1.46h41.76c.59,0,1.11-.09,1.56-.27s.95-.5,1.49-.95l2.64-2.24h1.15l-9.08,16.68h-39.53c-9.13,0-16.22-.78-21.25-2.34-5.04-1.56-9.77-4.17-14.2-7.83-5.42-4.43-9.53-9.75-12.31-15.97-2.78-6.21-4.17-13.14-4.17-20.78,0-5.92.8-11.48,2.41-16.68,1.6-5.2,3.99-9.97,7.15-14.31,2.21-3.03,4.75-5.74,7.59-8.14,2.85-2.4,5.97-4.45,9.36-6.17,2.98-1.49,6.19-2.55,9.63-3.19,3.43-.63,8.52-.95,15.26-.95h47.87l-9.02,16.48h-.68l.14-1.22v-.27c0-.59-.23-1.06-.68-1.42-.45-.36-1.02-.54-1.69-.54h-35.93ZM154.54,61.27l5.83-13.22h66.37l-8.88,16.68h-.81l.14-1.36v-.27c0-.54-.22-.98-.64-1.32-.43-.34-1.01-.51-1.73-.51h-60.27Z"/>
  <path class="cls-1" d="M278.21,44.45l29.76,7.66c11.57,2.98,20.38,7.77,26.44,14.37,6.06,6.6,9.08,14.71,9.08,24.34v16.68h-102.44l5.83-13.22h82.04c.04-.32.08-.68.1-1.09.02-.41.03-1.02.03-1.83,0-6.64-2.02-12.12-6.07-16.44-4.05-4.31-10.2-7.58-18.47-9.8l-39.87-10.1c-7.01-1.81-12.23-4.58-15.66-8.31-3.44-3.73-5.15-8.51-5.15-14.34,0-6.64,2.31-11.84,6.92-15.59,4.61-3.75,11.05-5.63,19.32-5.63h65.83l-9.08,16.48h-.81l.14-1.22v-.27c0-.59-.21-1.06-.64-1.42-.43-.36-1.01-.54-1.73-.54h-53.7c-3.98,0-6.92.64-8.81,1.93-1.9,1.29-2.85,3.29-2.85,6,0,4.88,6.33,8.93,18.98,12.14l.81.2Z"/>
  <path class="cls-1" d="M369.87,107.51h-20.54L410.14,7.84l60.41,99.66h-20.81v-.95c.9,0,1.62-.18,2.14-.54.52-.36.78-.84.78-1.42,0-.41-.06-.78-.17-1.12-.11-.34-.24-.6-.37-.78l-20.48-33.63h-29.56c-1.4,0-2.33.04-2.78.1-.45.07-.77.21-.95.44l-1.97,1.63-.68-.54,8.61-14.85h19.19l-13.36-22.03-42.64,68.82c-.18.27-.32.58-.41.91-.09.34-.14.69-.14,1.05,0,.59.26,1.06.78,1.42.52.36,1.23.54,2.14.54v.95Z"/>
</svg>